<?xml version="1.0" encoding="utf-8"?>
<!-- Generator: Adobe Illustrator 19.1.1, SVG Export Plug-In . SVG Version: 6.00 Build 0)  -->
<svg version="1.1" id="Layer_1" xmlns="http://www.w3.org/2000/svg" xmlns:xlink="http://www.w3.org/1999/xlink" x="0px" y="0px"
	 width="30px" height="29.3px" viewBox="0 0 30 29.3" style="enable-background:new 0 0 30 29.3;" xml:space="preserve">
<style type="text/css">
	.st0{fill:#7E9ED2;}
	.st1{fill:#6C94CD;}
</style>
<path class="st0" d="M0,13.7c0,1.9,0.7,3.6,2,5c1.3,1.4,3,2.1,4.9,2.2c0.2,0,0.2-0.1,0.2-0.2v-1.9c0-0.2-0.1-0.2-0.2-0.2
	c-1.2-0.1-2.3-0.5-3.2-1.5c-0.9-0.9-1.3-2-1.3-3.3c0-1.2,0.4-2.2,1.2-3.1c0.8-0.9,1.8-1.4,3-1.5l0.8,0c0.2,0,0.3-0.1,0.3-0.3
	l0.1-0.8C8,6.4,8.7,5.1,9.8,4C11,3,12.4,2.4,14,2.4c1.6,0,3,0.5,4.1,1.6c1.2,1.1,1.8,2.4,2,3.9l0.1,0.8c0,0.2,0.1,0.2,0.3,0.2h2.3
	c1.3,0,2.4,0.5,3.3,1.4c0.9,0.9,1.4,2,1.4,3.3c0,1.3-0.4,2.3-1.3,3.3s-1.9,1.4-3.2,1.5c-0.2,0-0.3,0.1-0.3,0.2v1.9
	c0,0.2,0.1,0.2,0.3,0.2c1.3,0,2.4-0.4,3.5-1c1.1-0.7,1.9-1.5,2.5-2.6c0.6-1.1,0.9-2.3,0.9-3.5c0-1.3-0.3-2.5-1-3.6
	c-0.6-1.1-1.5-2-2.6-2.6s-2.3-1-3.6-1h-0.5c-0.5-1.9-1.5-3.5-3-4.7C17.8,0.6,16,0,14,0c-2,0-3.8,0.6-5.4,1.9S6,4.8,5.5,6.7
	c-1.6,0.4-2.9,1.2-4,2.5S0,12,0,13.7z"/>
<path class="st1" d="M7.9,24.1c0.1,0.3,0.4,0.5,0.7,0.7c0.3,0.1,0.6,0.2,0.9,0c0.3-0.1,0.5-0.3,0.7-0.7c0.1-0.3,0.2-0.6,0-0.9
	c-0.1-0.3-0.3-0.5-0.7-0.6c-0.3-0.2-0.6-0.2-0.9,0c-0.3,0.1-0.5,0.3-0.7,0.7C7.8,23.5,7.8,23.8,7.9,24.1z"/>
<path class="st1" d="M8.8,20c0,0.2,0.1,0.4,0.2,0.7c0.1,0.2,0.4,0.4,0.7,0.5c0.3,0.2,0.6,0.2,0.9,0c0.3-0.1,0.5-0.4,0.6-0.9l1.3-4.9
	c0.1-0.4,0.1-0.7-0.1-1c-0.2-0.3-0.4-0.5-0.8-0.5c-0.1,0-0.2,0-0.3,0c-0.2,0-0.5,0.1-0.7,0.2c-0.2,0.1-0.4,0.4-0.5,0.6l-1.3,4.9
	C8.8,19.9,8.8,20,8.8,20z"/>
<path class="st1" d="M11.5,28.1c0,0.2,0,0.3,0.1,0.4c0.1,0.3,0.3,0.5,0.7,0.7c0.1,0.1,0.3,0.1,0.5,0.1c0.1,0,0.2,0,0.4-0.1
	c0.3-0.1,0.5-0.3,0.7-0.7c0.1-0.3,0.1-0.6,0-1c-0.1-0.3-0.4-0.5-0.7-0.7c-0.3-0.1-0.6-0.1-0.9,0c-0.3,0.1-0.5,0.3-0.6,0.5
	C11.5,27.7,11.5,27.9,11.5,28.1z"/>
<path class="st1" d="M12.5,24.3c0,0.5,0.3,0.9,0.9,1.1c0.2,0,0.3,0.1,0.3,0.1c0.2,0,0.4,0,0.5-0.1c0.3-0.1,0.5-0.4,0.6-0.8l2.4-9.1
	c0.1-0.3,0.1-0.7-0.1-0.9c-0.1-0.3-0.4-0.5-0.7-0.5c-0.1,0-0.2,0-0.4,0c-0.2,0-0.5,0.1-0.7,0.2s-0.4,0.4-0.4,0.6l-2.5,9.2
	C12.6,24.1,12.5,24.3,12.5,24.3z"/>
<path class="st1" d="M17.5,23.7c0,0.2,0,0.3,0.1,0.5c0.1,0.3,0.3,0.5,0.6,0.6c0.2,0.1,0.3,0.1,0.5,0.1c0.1,0,0.2,0,0.4-0.1
	c0.3-0.1,0.5-0.3,0.7-0.6c0.1-0.3,0.1-0.6,0-0.9c-0.1-0.3-0.3-0.5-0.6-0.7c-0.3-0.2-0.6-0.2-0.9,0c-0.3,0.1-0.5,0.3-0.7,0.7
	C17.6,23.4,17.5,23.5,17.5,23.7z"/>
<path class="st1" d="M18.6,20c0,0.2,0.1,0.4,0.2,0.7c0.2,0.2,0.4,0.4,0.7,0.5c0.2,0,0.4,0.1,0.4,0.1c0.1,0,0.3,0,0.5-0.1
	c0.3-0.1,0.5-0.4,0.6-0.8l1.3-4.8c0-0.2,0-0.4,0-0.4c0-0.2-0.1-0.4-0.2-0.7s-0.4-0.4-0.7-0.4c-0.1,0-0.3,0-0.4,0
	c-0.2,0-0.5,0.1-0.7,0.2c-0.2,0.1-0.4,0.4-0.4,0.7l-1.3,4.9L18.6,20z"/>
</svg>
