<?xml version="1.0" encoding="utf-8"?>
<!-- Generator: Adobe Illustrator 19.1.1, SVG Export Plug-In . SVG Version: 6.00 Build 0)  -->
<svg version="1.1" id="Layer_1" xmlns="http://www.w3.org/2000/svg" xmlns:xlink="http://www.w3.org/1999/xlink" x="0px" y="0px"
	 width="30px" height="23.4px" viewBox="0 0 30 23.4" style="enable-background:new 0 0 30 23.4;" xml:space="preserve">
<style type="text/css">
	.st0{fill:#FECC08;}
	.st1{fill:#7E9ED2;}
</style>
<path class="st0" d="M0,17.8c0,1,0.2,1.9,0.7,2.8c0.5,0.8,1.2,1.5,2,2c0.8,0.5,1.8,0.7,2.8,0.7h12.1c1,0,1.9-0.2,2.8-0.7
	s1.5-1.2,2-2c0.5-0.8,0.7-1.8,0.7-2.8c0-0.7-0.2-1.5-0.5-2.2c0.8-1,1.3-2.3,1.3-3.7c0-0.8-0.2-1.6-0.5-2.3c-0.3-0.7-0.7-1.3-1.3-1.9
	c-0.5-0.5-1.1-0.9-1.9-1.3c-0.7-0.3-1.5-0.5-2.3-0.5c-1.7,0-3.1,0.6-4.3,1.9c-0.9-0.5-1.9-0.7-3-0.7c-1.6,0-3,0.5-4.2,1.5
	s-2,2.2-2.3,3.7C3,12.8,2,13.4,1.2,14.4S0,16.6,0,17.8z M1.9,17.8c0-0.9,0.3-1.7,0.9-2.4s1.4-1.1,2.3-1.2l0.6,0
	C5.9,14.2,6,14.1,6,14L6,13.4c0.2-1.2,0.7-2.2,1.6-3c0.9-0.8,1.9-1.2,3.1-1.2c1.2,0,2.3,0.4,3.2,1.2c0.9,0.8,1.4,1.8,1.5,3l0.1,0.6
	c0,0.1,0.1,0.2,0.2,0.2h1.8c1,0,1.8,0.4,2.5,1.1c0.7,0.7,1.1,1.6,1.1,2.5c0,1-0.4,1.9-1.1,2.6s-1.6,1.1-2.5,1.1H5.5
	c-1,0-1.8-0.4-2.5-1.1C2.3,19.7,1.9,18.9,1.9,17.8z M9.4,4.2c0,0.3,0.1,0.5,0.3,0.7l0.7,0.7c0.3,0.2,0.5,0.3,0.7,0.3
	c0.2,0,0.4-0.1,0.6-0.3C11.9,5.4,12,5.1,12,4.9s-0.1-0.5-0.3-0.7L11,3.5c-0.2-0.2-0.4-0.3-0.7-0.3c-0.3,0-0.5,0.1-0.7,0.3
	C9.5,3.7,9.4,3.9,9.4,4.2z M15.3,9.1C16.1,8.3,17,8,18.1,8c1.1,0,2,0.4,2.8,1.1c0.8,0.8,1.2,1.7,1.2,2.8c0,0.7-0.2,1.4-0.6,2.1
	c-1.1-1.1-2.4-1.6-3.9-1.6h-0.4C17,11.2,16.3,10.1,15.3,9.1z M17.2,3.2c0,0.3,0.1,0.5,0.3,0.7s0.4,0.3,0.7,0.3
	c0.3,0,0.5-0.1,0.7-0.3C19,3.7,19,3.5,19,3.2V0.9c0-0.3-0.1-0.5-0.3-0.7S18.4,0,18.1,0c-0.3,0-0.5,0.1-0.7,0.3s-0.3,0.4-0.3,0.7V3.2
	z M23.3,5.8c0,0.3,0.1,0.5,0.2,0.7c0.2,0.2,0.5,0.3,0.7,0.3c0.2,0,0.4-0.1,0.7-0.3l1.6-1.6c0.2-0.2,0.3-0.4,0.3-0.7
	c0-0.3-0.1-0.5-0.3-0.7c-0.2-0.2-0.4-0.3-0.7-0.3c-0.3,0-0.5,0.1-0.6,0.3l-1.6,1.6C23.4,5.3,23.3,5.5,23.3,5.8z M24.2,19
	c0,0.3,0.1,0.5,0.3,0.7l0.7,0.7c0.2,0.2,0.4,0.3,0.6,0.3c0.3,0,0.5-0.1,0.7-0.3c0.2-0.2,0.3-0.4,0.3-0.7c0-0.2-0.1-0.5-0.3-0.6
	l-0.7-0.7c-0.2-0.2-0.4-0.3-0.6-0.3c-0.3,0-0.5,0.1-0.7,0.3C24.3,18.5,24.2,18.7,24.2,19z M25.8,11.9c0,0.3,0.1,0.5,0.3,0.6
	c0.2,0.2,0.4,0.3,0.7,0.3h2.3c0.3,0,0.5-0.1,0.6-0.3c0.2-0.2,0.3-0.4,0.3-0.7c0-0.3-0.1-0.5-0.3-0.7c-0.2-0.2-0.4-0.3-0.6-0.3h-2.3
	c-0.3,0-0.5,0.1-0.7,0.3C25.9,11.5,25.8,11.7,25.8,11.9z"/>
<path class="st1" d="M14.2,8.3c-0.9-0.5-2.4-1-3.5-1c-1.6,0-3,0.5-4.2,1.5s-2,2.2-2.3,3.7C3,12.8,2,13.4,1.2,14.4S0,16.6,0,17.8
	c0,1,0.2,1.9,0.7,2.8c0.5,0.8,1.2,1.5,2,2c0.8,0.5,1.8,0.7,2.8,0.7h12.1c1,0,1.9-0.2,2.8-0.7s1.5-1,2.1-1.8c1.1-1.3,1-4.4,0.3-5.2
	 M1.9,17.8c0-0.9,0.3-1.7,0.9-2.4s1.4-1.1,2.3-1.2l0.6,0C5.9,14.2,6,14.1,6,14L6,13.4c0.2-1.2,0.7-2.2,1.6-3
	c0.9-0.8,1.9-1.2,3.1-1.2c1.2,0,2.3,0.4,3.2,1.2c0.9,0.8,1.4,1.8,1.5,3l0.1,0.6c0,0.1,0.1,0.2,0.2,0.2h1.8c1,0,1.8,0.4,2.5,1.1
	c0.7,0.7,1.1,1.6,1.1,2.5c0,1-0.4,1.9-1.1,2.6s-1.6,1.1-2.5,1.1H5.5c-1,0-1.8-0.4-2.5-1.1C2.3,19.7,1.9,18.9,1.9,17.8z"/>
</svg>
