<?xml version="1.0" encoding="utf-8"?>
<!-- Generator: Adobe Illustrator 19.1.1, SVG Export Plug-In . SVG Version: 6.00 Build 0)  -->
<svg version="1.1" id="Layer_1" xmlns="http://www.w3.org/2000/svg" xmlns:xlink="http://www.w3.org/1999/xlink" x="0px" y="0px"
	 width="30px" height="30px" viewBox="0 0 30 30" style="enable-background:new 0 0 30 30;" xml:space="preserve">
<style type="text/css">
	.st0{fill:#FECC08;}
</style>
<path class="st0" d="M0,15c0-0.3,0.1-0.6,0.4-0.9c0.2-0.2,0.5-0.3,0.8-0.3h2.9c0.3,0,0.6,0.1,0.8,0.4c0.2,0.2,0.3,0.5,0.3,0.9
	s-0.1,0.6-0.3,0.9c-0.2,0.2-0.5,0.4-0.8,0.4H1.2c-0.3,0-0.6-0.1-0.8-0.4C0.1,15.6,0,15.3,0,15z M4,24.8c0-0.3,0.1-0.6,0.3-0.9l2.1-2
	c0.2-0.2,0.5-0.3,0.8-0.3c0.3,0,0.6,0.1,0.8,0.3c0.2,0.2,0.3,0.5,0.3,0.8c0,0.3-0.1,0.6-0.3,0.9l-2,2c-0.6,0.5-1.2,0.5-1.7,0
	C4.2,25.4,4,25.1,4,24.8z M4,5.2c0-0.3,0.1-0.6,0.3-0.9C4.6,4.1,4.9,4,5.3,4c0.3,0,0.6,0.1,0.8,0.3l2,2.1c0.2,0.2,0.3,0.5,0.3,0.8
	c0,0.3-0.1,0.6-0.3,0.8C7.9,8.3,7.6,8.5,7.3,8.5c-0.3,0-0.6-0.1-0.8-0.3l-2.1-2C4.2,5.9,4,5.6,4,5.2z M7.6,15c0-1.3,0.3-2.5,1-3.7
	s1.6-2,2.7-2.7s2.4-1,3.7-1c1,0,1.9,0.2,2.9,0.6c0.9,0.4,1.7,0.9,2.3,1.6c0.7,0.7,1.2,1.4,1.6,2.3c0.4,0.9,0.6,1.9,0.6,2.9
	c0,1.3-0.3,2.6-1,3.7c-0.7,1.1-1.6,2-2.7,2.7c-1.1,0.7-2.4,1-3.7,1s-2.6-0.3-3.7-1c-1.1-0.7-2-1.6-2.7-2.7C8,17.6,7.6,16.3,7.6,15z
	 M10,15c0,1.4,0.5,2.6,1.5,3.5c1,1,2.1,1.5,3.5,1.5s2.6-0.5,3.5-1.5S20,16.4,20,15c0-1.4-0.5-2.5-1.5-3.5c-1-1-2.1-1.4-3.5-1.4
	c-1.4,0-2.5,0.5-3.5,1.4C10.5,12.5,10,13.6,10,15z M13.8,26c0-0.3,0.1-0.6,0.4-0.8c0.2-0.2,0.5-0.3,0.8-0.3c0.3,0,0.6,0.1,0.9,0.3
	s0.3,0.5,0.3,0.8v2.8c0,0.3-0.1,0.6-0.4,0.9C15.6,29.9,15.3,30,15,30s-0.6-0.1-0.8-0.4c-0.2-0.2-0.4-0.5-0.4-0.9L13.8,26z M13.8,4.1
	V1.2c0-0.3,0.1-0.6,0.4-0.8C14.4,0.1,14.7,0,15,0s0.6,0.1,0.8,0.4c0.2,0.2,0.4,0.5,0.4,0.8v2.9c0,0.3-0.1,0.6-0.4,0.8
	c-0.2,0.2-0.5,0.3-0.8,0.3s-0.6-0.1-0.8-0.3C13.9,4.7,13.8,4.4,13.8,4.1z M21.6,22.7c0-0.3,0.1-0.6,0.3-0.8c0.2-0.2,0.5-0.3,0.8-0.3
	c0.3,0,0.6,0.1,0.8,0.3l2.1,2c0.2,0.2,0.3,0.5,0.3,0.9c0,0.3-0.1,0.6-0.3,0.8c-0.6,0.4-1.1,0.4-1.7,0l-2-2
	C21.7,23.4,21.6,23.1,21.6,22.7z M21.6,7.3c0-0.4,0.1-0.6,0.3-0.8l2-2.1C24.2,4.2,24.4,4,24.8,4c0.3,0,0.6,0.1,0.8,0.4
	C25.8,4.6,26,4.9,26,5.2c0,0.4-0.1,0.6-0.3,0.9l-2.1,2c-0.3,0.2-0.5,0.3-0.8,0.3c-0.3,0-0.6-0.1-0.8-0.3S21.6,7.6,21.6,7.3z
	 M24.8,15c0-0.3,0.1-0.6,0.3-0.9c0.2-0.2,0.5-0.3,0.8-0.3h2.9c0.3,0,0.6,0.1,0.8,0.4c0.2,0.2,0.4,0.5,0.4,0.8s-0.1,0.6-0.4,0.8
	c-0.2,0.2-0.5,0.4-0.8,0.4h-2.9c-0.3,0-0.6-0.1-0.8-0.4S24.8,15.3,24.8,15z"/>
</svg>
