<?xml version="1.0" encoding="utf-8"?>
<!-- Generator: Adobe Illustrator 19.1.1, SVG Export Plug-In . SVG Version: 6.00 Build 0)  -->
<svg version="1.1" id="Layer_1" xmlns="http://www.w3.org/2000/svg" xmlns:xlink="http://www.w3.org/1999/xlink" x="0px" y="0px"
	 width="86px" height="32.3px" viewBox="0 0 86 32.3" style="enable-background:new 0 0 86 32.3;" xml:space="preserve">
<style type="text/css">
	.st0{fill:#E7463E;}
</style>
<g>
	<g>
		<path class="st0" d="M4.5,0.2l2.7,8.3l2.7-8.3h3.8v11.9h-2.9V9.3L11,3.6l-2.9,8.5H6.2L3.3,3.6l0.3,5.7v2.8H0.7V0.2H4.5z"/>
		<path class="st0" d="M31,6.4c0,1.2-0.2,2.2-0.6,3.1c-0.4,0.9-1,1.6-1.8,2.1c-0.8,0.5-1.7,0.7-2.7,0.7c-1,0-1.9-0.2-2.7-0.7
			c-0.8-0.5-1.4-1.1-1.8-2c-0.4-0.9-0.7-1.9-0.7-3V5.9c0-1.2,0.2-2.2,0.6-3.1c0.4-0.9,1-1.6,1.8-2.1C23.8,0.2,24.7,0,25.7,0
			c1,0,1.9,0.2,2.7,0.7c0.8,0.5,1.4,1.2,1.9,2.1C30.7,3.7,31,4.7,31,5.8V6.4z M28,5.9c0-1.2-0.2-2.1-0.6-2.7c-0.4-0.6-1-0.9-1.7-0.9
			c-1.4,0-2.2,1.1-2.3,3.2l0,0.9c0,1.2,0.2,2.1,0.6,2.7c0.4,0.6,1,0.9,1.7,0.9c0.7,0,1.3-0.3,1.7-0.9C27.8,8.5,28,7.6,28,6.4V5.9z"
			/>
		<path class="st0" d="M48,6.4c0,1.2-0.2,2.2-0.6,3.1c-0.4,0.9-1,1.6-1.8,2.1c-0.8,0.5-1.7,0.7-2.7,0.7c-1,0-1.9-0.2-2.7-0.7
			c-0.8-0.5-1.4-1.1-1.8-2c-0.4-0.9-0.7-1.9-0.7-3V5.9c0-1.2,0.2-2.2,0.6-3.1c0.4-0.9,1-1.6,1.8-2.1C40.8,0.2,41.7,0,42.7,0
			c1,0,1.9,0.2,2.7,0.7c0.8,0.5,1.4,1.2,1.9,2.1C47.7,3.7,48,4.7,48,5.8V6.4z M45,5.9c0-1.2-0.2-2.1-0.6-2.7c-0.4-0.6-1-0.9-1.7-0.9
			c-1.4,0-2.2,1.1-2.3,3.2l0,0.9c0,1.2,0.2,2.1,0.6,2.7c0.4,0.6,1,0.9,1.7,0.9c0.7,0,1.3-0.3,1.7-0.9C44.8,8.5,45,7.6,45,6.4V5.9z"
			/>
		<path class="st0" d="M64.8,12.1H62v-5h-4.2v5h-2.9V0.2h2.9v4.7H62V0.2h2.9V12.1z"/>
		<path class="st0" d="M75.1,12.1h-2.9V0.2h2.9V12.1z"/>
		<path class="st0" d="M85.6,12.1h-2.9V0.2h2.9V12.1z"/>
		<path class="st0" d="M10,27.8l1.4-7.5h2.9l-2.5,11.9h-3l-1.6-6.8l-1.6,6.8h-3L0,20.3h2.9l1.4,7.5l1.6-7.5h2.4L10,27.8z"/>
		<path class="st0" d="M22.7,27.2h-4.5v2.9h5.3v2.2h-8.2V20.3h8.2v2.2h-5.4v2.5h4.5V27.2z"/>
		<path class="st0" d="M33.8,30h-3.9l-0.7,2.2H26l4.4-11.9h2.7l4.4,11.9h-3.1L33.8,30z M30.5,27.8h2.6l-1.3-4.1L30.5,27.8z"/>
		<path class="st0" d="M49.1,22.6h-3.6v9.7h-2.9v-9.7h-3.5v-2.2h10V22.6z"/>
		<path class="st0" d="M61.5,32.3h-2.9v-5h-4.2v5h-2.9V20.3h2.9v4.7h4.2v-4.7h2.9V32.3z"/>
		<path class="st0" d="M72.1,27.2h-4.5v2.9h5.3v2.2h-8.2V20.3H73v2.2h-5.4v2.5h4.5V27.2z"/>
		<path class="st0" d="M80.8,28h-1.6v4.2h-2.9V20.3h4.7c1.4,0,2.5,0.3,3.3,0.9c0.8,0.6,1.2,1.5,1.2,2.7c0,0.8-0.2,1.5-0.5,2.1
			c-0.3,0.5-0.9,1-1.6,1.3l2.5,4.8v0.1h-3.1L80.8,28z M79.2,25.8h1.8c0.5,0,1-0.1,1.2-0.4c0.3-0.3,0.4-0.7,0.4-1.2
			c0-0.5-0.1-0.9-0.4-1.2c-0.3-0.3-0.7-0.4-1.2-0.4h-1.8V25.8z"/>
	</g>
</g>
</svg>
